<mxfile host="app.diagrams.net" modified="2021-04-13T08:57:09.535Z" agent="5.0 (Windows NT 10.0; Win64; x64) AppleWebKit/537.36 (KHTML, like Gecko) Chrome/88.0.4324.182 Safari/537.36" etag="A67PdHLz7AbGe-TOu4TP" version="14.1.2" type="github">
  <diagram id="L9wh5_5upDk95yy1sQSH" name="Page-1">
    <mxGraphModel dx="1151" dy="673" grid="1" gridSize="10" guides="1" tooltips="1" connect="1" arrows="1" fold="1" page="1" pageScale="1" pageWidth="827" pageHeight="1169" math="0" shadow="0">
      <root>
        <mxCell id="0" />
        <mxCell id="1" parent="0" />
        <mxCell id="pIfulKXOhAl75pTlR59t-1" value="&lt;font face=&quot;calibri, sans-serif&quot; style=&quot;font-size: 24px&quot;&gt;&lt;b&gt;系&lt;br&gt;统&lt;br&gt;安&lt;br&gt;全&lt;br&gt;保&lt;br&gt;障&lt;br&gt;体&lt;br&gt;系&lt;/b&gt;&lt;/font&gt;" style="rounded=0;whiteSpace=wrap;html=1;" vertex="1" parent="1">
          <mxGeometry x="100" y="200" width="70" height="460" as="geometry" />
        </mxCell>
        <mxCell id="pIfulKXOhAl75pTlR59t-2" value="" style="rounded=0;whiteSpace=wrap;html=1;" vertex="1" parent="1">
          <mxGeometry x="200" y="560" width="430" height="100" as="geometry" />
        </mxCell>
        <mxCell id="pIfulKXOhAl75pTlR59t-3" value="&lt;b&gt;&lt;font style=&quot;font-size: 18px&quot;&gt;数据&lt;br&gt;存储&lt;br&gt;&lt;/font&gt;&lt;/b&gt;" style="rounded=0;whiteSpace=wrap;html=1;" vertex="1" parent="1">
          <mxGeometry x="200" y="575" width="70" height="70" as="geometry" />
        </mxCell>
        <mxCell id="pIfulKXOhAl75pTlR59t-4" value="MySQL" style="shape=datastore;whiteSpace=wrap;html=1;fontStyle=1" vertex="1" parent="1">
          <mxGeometry x="320" y="590" width="60" height="50" as="geometry" />
        </mxCell>
        <mxCell id="pIfulKXOhAl75pTlR59t-5" value="Redis" style="shape=datastore;whiteSpace=wrap;html=1;fontStyle=1" vertex="1" parent="1">
          <mxGeometry x="435" y="585" width="60" height="60" as="geometry" />
        </mxCell>
        <mxCell id="pIfulKXOhAl75pTlR59t-6" value="FastDFS" style="shape=datastore;whiteSpace=wrap;html=1;fontStyle=1" vertex="1" parent="1">
          <mxGeometry x="550" y="585" width="60" height="60" as="geometry" />
        </mxCell>
        <mxCell id="pIfulKXOhAl75pTlR59t-7" value="" style="rounded=0;whiteSpace=wrap;html=1;" vertex="1" parent="1">
          <mxGeometry x="199" y="317" width="430" height="220" as="geometry" />
        </mxCell>
        <mxCell id="pIfulKXOhAl75pTlR59t-8" value="&lt;b&gt;&lt;font style=&quot;font-size: 18px&quot;&gt;应用&lt;br&gt;模块&lt;br&gt;&lt;/font&gt;&lt;/b&gt;" style="rounded=0;whiteSpace=wrap;html=1;" vertex="1" parent="1">
          <mxGeometry x="200" y="392" width="70" height="70" as="geometry" />
        </mxCell>
        <mxCell id="pIfulKXOhAl75pTlR59t-9" value="&lt;font style=&quot;font-size: 14px&quot;&gt;平台管理端&lt;/font&gt;" style="rounded=1;whiteSpace=wrap;html=1;fontStyle=1" vertex="1" parent="1">
          <mxGeometry x="287" y="341.5" width="100" height="37" as="geometry" />
        </mxCell>
        <mxCell id="pIfulKXOhAl75pTlR59t-10" value="&lt;font style=&quot;font-size: 14px&quot;&gt;景区管理端&lt;/font&gt;" style="rounded=1;whiteSpace=wrap;html=1;fontStyle=1" vertex="1" parent="1">
          <mxGeometry x="401.5" y="342" width="105" height="37" as="geometry" />
        </mxCell>
        <mxCell id="pIfulKXOhAl75pTlR59t-11" value="&lt;font style=&quot;font-size: 14px&quot;&gt;&lt;b&gt;客户端&lt;/b&gt;&lt;/font&gt;" style="rounded=1;whiteSpace=wrap;html=1;" vertex="1" parent="1">
          <mxGeometry x="520" y="343" width="99" height="37" as="geometry" />
        </mxCell>
        <mxCell id="pIfulKXOhAl75pTlR59t-12" value="" style="rounded=0;whiteSpace=wrap;html=1;" vertex="1" parent="1">
          <mxGeometry x="198" y="200" width="431" height="80" as="geometry" />
        </mxCell>
        <mxCell id="pIfulKXOhAl75pTlR59t-13" value="&lt;b&gt;&lt;font style=&quot;font-size: 18px&quot;&gt;用户&lt;br&gt;&lt;/font&gt;&lt;/b&gt;" style="rounded=0;whiteSpace=wrap;html=1;" vertex="1" parent="1">
          <mxGeometry x="198" y="205" width="70" height="70" as="geometry" />
        </mxCell>
        <mxCell id="pIfulKXOhAl75pTlR59t-14" value="" style="shape=mxgraph.bpmn.user_task;html=1;outlineConnect=0;" vertex="1" parent="1">
          <mxGeometry x="336" y="210" width="21" height="20" as="geometry" />
        </mxCell>
        <mxCell id="pIfulKXOhAl75pTlR59t-15" value="&lt;font style=&quot;font-size: 14px&quot;&gt;平台&lt;br&gt;管理员&lt;/font&gt;" style="text;html=1;strokeColor=none;fillColor=none;align=center;verticalAlign=middle;whiteSpace=wrap;rounded=0;fontStyle=1" vertex="1" parent="1">
          <mxGeometry x="319" y="246" width="54" height="20" as="geometry" />
        </mxCell>
        <mxCell id="pIfulKXOhAl75pTlR59t-16" value="" style="shape=mxgraph.bpmn.user_task;html=1;outlineConnect=0;" vertex="1" parent="1">
          <mxGeometry x="449" y="210" width="18" height="20" as="geometry" />
        </mxCell>
        <mxCell id="pIfulKXOhAl75pTlR59t-17" value="&lt;font style=&quot;font-size: 14px&quot;&gt;景区&lt;br&gt;管理员&lt;/font&gt;" style="text;html=1;strokeColor=none;fillColor=none;align=center;verticalAlign=middle;whiteSpace=wrap;rounded=0;fontStyle=1" vertex="1" parent="1">
          <mxGeometry x="432.5" y="246" width="51" height="21" as="geometry" />
        </mxCell>
        <mxCell id="pIfulKXOhAl75pTlR59t-18" value="" style="shape=mxgraph.bpmn.user_task;html=1;outlineConnect=0;" vertex="1" parent="1">
          <mxGeometry x="562" y="210" width="23" height="20" as="geometry" />
        </mxCell>
        <mxCell id="pIfulKXOhAl75pTlR59t-19" value="&lt;font style=&quot;font-size: 14px&quot;&gt;用户&lt;/font&gt;" style="text;html=1;strokeColor=none;fillColor=none;align=center;verticalAlign=middle;whiteSpace=wrap;rounded=0;fontStyle=1" vertex="1" parent="1">
          <mxGeometry x="554" y="240" width="40" height="21" as="geometry" />
        </mxCell>
        <mxCell id="pIfulKXOhAl75pTlR59t-20" value="" style="group" vertex="1" connectable="0" parent="1">
          <mxGeometry x="292" y="390" width="91" height="130" as="geometry" />
        </mxCell>
        <mxCell id="pIfulKXOhAl75pTlR59t-21" value="&lt;span style=&quot;line-height: 150%&quot;&gt;&lt;font style=&quot;font-size: 14px&quot;&gt;景区列表&lt;/font&gt;&lt;/span&gt;" style="rounded=0;whiteSpace=wrap;html=1;" vertex="1" parent="pIfulKXOhAl75pTlR59t-20">
          <mxGeometry width="91" height="32.5" as="geometry" />
        </mxCell>
        <mxCell id="pIfulKXOhAl75pTlR59t-22" value="&lt;span style=&quot;line-height: 150%&quot;&gt;&lt;font style=&quot;font-size: 14px&quot;&gt;景区详情页&lt;/font&gt;&lt;/span&gt;" style="rounded=0;whiteSpace=wrap;html=1;" vertex="1" parent="pIfulKXOhAl75pTlR59t-20">
          <mxGeometry y="32.5" width="91" height="32.5" as="geometry" />
        </mxCell>
        <mxCell id="pIfulKXOhAl75pTlR59t-23" value="&lt;span style=&quot;line-height: 150%&quot;&gt;&lt;font style=&quot;font-size: 14px&quot;&gt;景区编辑页&lt;/font&gt;&lt;/span&gt;" style="rounded=0;whiteSpace=wrap;html=1;" vertex="1" parent="pIfulKXOhAl75pTlR59t-20">
          <mxGeometry y="65" width="91" height="32.5" as="geometry" />
        </mxCell>
        <mxCell id="pIfulKXOhAl75pTlR59t-24" value="&lt;span style=&quot;line-height: 150%&quot;&gt;&lt;font style=&quot;font-size: 14px&quot;&gt;个人中心&lt;/font&gt;&lt;/span&gt;" style="rounded=0;whiteSpace=wrap;html=1;" vertex="1" parent="pIfulKXOhAl75pTlR59t-20">
          <mxGeometry y="97.5" width="91" height="32.5" as="geometry" />
        </mxCell>
        <mxCell id="pIfulKXOhAl75pTlR59t-25" value="" style="group" vertex="1" connectable="0" parent="1">
          <mxGeometry x="407" y="392" width="94" height="120" as="geometry" />
        </mxCell>
        <mxCell id="pIfulKXOhAl75pTlR59t-26" value="&lt;span style=&quot;line-height: 150%&quot;&gt;&lt;font style=&quot;font-size: 14px&quot;&gt;直播列表&lt;/font&gt;&lt;/span&gt;" style="rounded=0;whiteSpace=wrap;html=1;" vertex="1" parent="pIfulKXOhAl75pTlR59t-25">
          <mxGeometry width="94" height="30" as="geometry" />
        </mxCell>
        <mxCell id="pIfulKXOhAl75pTlR59t-27" value="&lt;span style=&quot;line-height: 150%&quot;&gt;&lt;font style=&quot;font-size: 14px&quot;&gt;直播详情页&lt;/font&gt;&lt;/span&gt;" style="rounded=0;whiteSpace=wrap;html=1;" vertex="1" parent="pIfulKXOhAl75pTlR59t-25">
          <mxGeometry y="30" width="94" height="30" as="geometry" />
        </mxCell>
        <mxCell id="pIfulKXOhAl75pTlR59t-28" value="&lt;span style=&quot;line-height: 150%&quot;&gt;&lt;font style=&quot;font-size: 14px&quot;&gt;直播项编辑页&lt;/font&gt;&lt;/span&gt;" style="rounded=0;whiteSpace=wrap;html=1;" vertex="1" parent="pIfulKXOhAl75pTlR59t-25">
          <mxGeometry y="60" width="94" height="30" as="geometry" />
        </mxCell>
        <mxCell id="pIfulKXOhAl75pTlR59t-29" value="&lt;span style=&quot;line-height: 150%&quot;&gt;&lt;font style=&quot;font-size: 14px&quot;&gt;个人中心&lt;/font&gt;&lt;/span&gt;" style="rounded=0;whiteSpace=wrap;html=1;" vertex="1" parent="pIfulKXOhAl75pTlR59t-25">
          <mxGeometry y="90" width="94" height="30" as="geometry" />
        </mxCell>
        <mxCell id="pIfulKXOhAl75pTlR59t-30" value="" style="group" vertex="1" connectable="0" parent="1">
          <mxGeometry x="524" y="392" width="91" height="98" as="geometry" />
        </mxCell>
        <mxCell id="pIfulKXOhAl75pTlR59t-31" value="&lt;span style=&quot;line-height: 150%&quot;&gt;&lt;font style=&quot;font-size: 14px&quot;&gt;景区列表&lt;/font&gt;&lt;/span&gt;" style="rounded=0;whiteSpace=wrap;html=1;" vertex="1" parent="pIfulKXOhAl75pTlR59t-30">
          <mxGeometry width="91" height="32.66666666666667" as="geometry" />
        </mxCell>
        <mxCell id="pIfulKXOhAl75pTlR59t-32" value="&lt;span style=&quot;line-height: 150%&quot;&gt;&lt;font style=&quot;font-size: 14px&quot;&gt;直播列表&lt;/font&gt;&lt;/span&gt;" style="rounded=0;whiteSpace=wrap;html=1;" vertex="1" parent="pIfulKXOhAl75pTlR59t-30">
          <mxGeometry y="32.66666666666667" width="91" height="32.66666666666667" as="geometry" />
        </mxCell>
        <mxCell id="pIfulKXOhAl75pTlR59t-33" value="&lt;span style=&quot;line-height: 150%&quot;&gt;&lt;font style=&quot;font-size: 14px&quot;&gt;直播详情页&lt;/font&gt;&lt;/span&gt;" style="rounded=0;whiteSpace=wrap;html=1;" vertex="1" parent="pIfulKXOhAl75pTlR59t-30">
          <mxGeometry y="65.33333333333334" width="91" height="32.66666666666667" as="geometry" />
        </mxCell>
        <mxCell id="pIfulKXOhAl75pTlR59t-34" value="&lt;font face=&quot;calibri, sans-serif&quot;&gt;&lt;span style=&quot;font-size: 24px&quot;&gt;&lt;b&gt;运&lt;br&gt;营&lt;br&gt;维&lt;br&gt;护&lt;br&gt;服&lt;br&gt;务&lt;br&gt;体&lt;br&gt;系&lt;/b&gt;&lt;/span&gt;&lt;/font&gt;" style="rounded=0;whiteSpace=wrap;html=1;" vertex="1" parent="1">
          <mxGeometry x="660" y="200" width="70" height="460" as="geometry" />
        </mxCell>
      </root>
    </mxGraphModel>
  </diagram>
</mxfile>
